<?xml version="1.0" encoding="utf-8"?>
<!-- Generator: Adobe Illustrator 27.0.0, SVG Export Plug-In . SVG Version: 6.00 Build 0)  -->
<svg version="1.1" id="Livello_1" xmlns="http://www.w3.org/2000/svg" xmlns:xlink="http://www.w3.org/1999/xlink" x="0px" y="0px"
	 viewBox="0 0 31.9 32" style="enable-background:new 0 0 31.9 32;" xml:space="preserve">
<style type="text/css">
	.st0{fill:url(#SVGID_1_);}
</style>
<linearGradient id="SVGID_1_" gradientUnits="userSpaceOnUse" x1="4.57" y1="16" x2="27.31" y2="16">
	<stop  offset="0" style="stop-color:#1B93FF"/>
	<stop  offset="0.1655" style="stop-color:#18ACCD"/>
	<stop  offset="0.3809" style="stop-color:#13C993"/>
	<stop  offset="0.5799" style="stop-color:#10E065"/>
	<stop  offset="0.7557" style="stop-color:#0EF144"/>
	<stop  offset="0.9017" style="stop-color:#0DFB30"/>
	<stop  offset="1" style="stop-color:#0CFF29"/>
</linearGradient>
<path class="st0" d="M14.3,12.4h-2.2c-0.4,0-0.8,0.4-0.8,0.8v0c0,0.4,0.4,0.8,0.8,0.8h1.6l2.6,2.7h-5.9V6.8h16.8l-5.8-5.9h-17V25
	l5.9,6.1V18.3h9.6L14.3,12.4z M8.9,5.3v21.8l-2.7-2.8V14h1.3c0.4,0,0.8-0.4,0.8-0.8v0c0-0.4-0.4-0.8-0.8-0.8H6.2V2.6H21l2.6,2.7H8.9
	z"/>
</svg>
